# xmcd CD database file
# Copyright (C) 1996 Ti Kan
#
# Track frame offsets:
# 	150
# 	11565
# 	20100
# 	30800
# 	38962
# 	47880
# 	56020
# 	64880
# 	74510
# 	84032
# 	94730
#
# Disc length: 1380 seconds
#
# Revision: 1
# Processed by: cddbd v1.4b41PL1 Copyright (c) Steve Scherf et al.
# Submitted via: DiscPlay 3.4
#
DISCID=8a05620b
DTITLE=Roger Miller - Golden Hits
DYEAR=1900
DGENRE=
TTITLE0=King Of The Road
TTITLE1=Dang Me
TTITLE2=Engine Engine #9
TTITLE3=In The Summertime(You Don't Want My Love)
TTITLE4=You Can't Rollerskate In A Buffalo Herd
TTITLE5=(And You Had A) Do-Wacka-Do
TTITLE6=England Swings
TTITLE7=Chug-A-Lug
TTITLE8=One Dying And A Burying
TTITLE9=Kansas City Star
TTITLE10=Atta Boy Girl
EXTD=
EXTT0=
EXTT1=
EXTT2=
EXTT3=
EXTT4=
EXTT5=
EXTT6=
EXTT7=
EXTT8=
EXTT9=
EXTT10=
PLAYORDER=
